<?xml version="1.0" encoding="UTF-8"?>
<svg xmlns="http://www.w3.org/2000/svg" version="1.1" viewBox="0 0 1080 1080">
  <defs>
    <style>
      .cls-1 {
        fill: #fff;
      }
    </style>
  </defs>
  <!-- Generator: Adobe Illustrator 28.7.4, SVG Export Plug-In . SVG Version: 1.2.0 Build 166)  -->
  <g>
    <g id="Ebene_1">
      <path class="cls-1" d="M385.4,445.68c-4.08,8.4-6.96,17.76-14.88,23.76-4.8,3.84-11.04,7.44-16.08,9.12-9.84,3.6-20.16,12-34.32,12.72l-74.64,8.88-.96-9.12c7.68,5.04,21.12-3.12,23.04-5.04,2.4-1.68,5.28-9.12,5.28-16.56l-8.4-124.56c0-6.48-.96-11.04-2.88-12.96-1.92-2.16-6-7.92-25.2-1.44,0,0-3.12-3.36-6.24-10.08,18.96,0,66.24-6.96,66.24-6.96,17.04-1.68,56.88,13.2,68.88,18.96,21.36,10.08,28.56,60.72,28.56,86.88,0,9.12-4.56,18.24-8.4,26.4ZM353.48,342.95c-26.88-12.48-32.88-4.8-49.44-5.28-4.32,0-7.44.72-8.64,1.68-1.68.72-2.4,2.88-2.4,5.76l1.44,122.16c0,2.64,1.92,12,3.36,12.72,1.44.96,8.64.72,13.2-.72,17.76-5.28,26.88-15.12,36.24-21.12,4.56-3.12,10.08-14.4,15.36-32.16,3.6-12,9.6-33.84,7.92-54.48-1.2-11.04-3.36-22.08-17.04-28.56Z"/>
      <path class="cls-1" d="M510.29,479.52c-12,9.84-27.6,20.4-44.88,20.4-18.48,0-40.56-3.36-54.24-24.48-8.88-13.68-10.8-60.96-8.4-77.52,2.64-18.24,10.08-39.6,23.04-50.88,11.76-10.08,27.36-20.88,44.88-20.88s40.08,6.96,53.28,28.08c8.64,13.92,11.52,56.4,11.52,74.64s-11.28,39.6-25.2,50.64ZM501.41,386.39c-3.12-13.68-12.48-46.08-35.52-46.08-12,0-22.8,8.16-31.2,17.04-8.16,8.4-12.24,20.64-7.44,38.88,7.68,28.08,11.28,60.96,16.8,71.52,11.04,20.88,12.72,18.96,24.96,19.2,11.28.24,15.12-4.56,23.52-13.2,8.16-8.4,12.48-27.36,12.72-44.4.24-18.96-1.44-32.16-3.84-42.96Z"/>
      <path class="cls-1" d="M789.2,344.54c-2.37-1.97-18.13-5.52-30.35-3.74,0,0-14.58-2.17-18.53,2.56-1.01,6.84-2.19,17.11-2.32,29.64-.18,17.04,1.81,17.57,2,35,.15,13.56-1.02,15.83-2.63,47.89-.09,1.77-.79,15.77-.79,15.77h0c-.2,5.32.39,9.26,2.17,10.25,8.47,6.9,10.44,4.34,15.96,4.73l-.59,5.91-61.68,7.09-1.38-5.32c5.72-.39,8.87-1.18,13.99-9.66,1.18-1.77,4.53-11.23,4.93-17.15,4.16-22.56,7.34-48.6,8.03-77.51.38-16-.05-31.04-1-45-2.87-1.93-5.73-3.85-8.6-5.78-7.29-2.17-28.97-.39-31.53,1.97-2.96,1.77-15.77,24.63-13.99,38.43l-8.47.59c3.55-13.01,10.64-43.75,11.63-53.21,72.72,1.58,135.98,2.36,138.94,2.17l2.36,58.14-6.5.59c2.76-15.77-9.07-41.19-11.63-43.36Z"/>
      <path class="cls-1" d="M309.96,572.16c-2.88-5.76-6-8.64-7.44-9.36-2.88-2.16-72.48-12.96-81.6-13.68l-17.76-1.2c-2.16-.24-3.6.48-4.32,1.2-.48.96-.96,2.4-.96,4.56l-2.16,52.8,22.08,2.64c6.96.72,13.68-3.12,15.6-5.04,1.92-2.16,1.44-15.36.24-22.32l7.44-1.68s.48,11.52,1.92,28.8l3.36,45.12h-6.96c-.96-6.24-5.04-17.28-6.96-19.44-1.92-1.92-7.68-7.44-14.64-7.44l-23.04-5.52-4.32,120.24c0,3.12.72,6,1.68,8.4.96,1.92,1.92,3.36,2.88,4.08,3.8,2.73,6.62,2.81,8,2.68,1.05-.1,2.51-.44,4-.79,1.81-.42,3.29-.85,4.32-1.17l.72,10.08-68.16,14.4-4.32-12c6.48,3.36,18.72-4.56,23.04-9.12,1.68-1.68,2.4-6,2.4-12.96,1.85-19.37,1.66-35.49,1-47.44-.74-13.47-1.79-16.3-2-28-.38-21.03,2.66-31.44,4-46,1.21-13.12,1.31-32.45-4.68-57.12.4-3.59.42-7.58.66-11.91.24-4.35.3-8.25-.42-9.21-1.68-3.12-4.56-4.56-8.16-5.28-2.88-.48-6-.48-9.36-.48-4.56,0-9.36.24-13.68.96-2.88.24-5.52.96-7.44,2.16l3.84-17.04c53.87,2.69,75.64,6.63,85.24,9.92,3.54,1.21,16.51,6.14,31,6,1.58-.01,4.12-.1,8,0,10.9.28,18.81,1.65,21,2,7.05,1.13,19.98,2.07,45.8,1.04l2.16,38.4-7.92,2.4c-.72-3.84-.96-7.44-4.08-13.68ZM287,582,718,627"/>
      <path class="cls-1" d="M355.32,759.03c-12,9.84-27.6,20.4-44.88,20.4-18.48,0-40.56-3.36-54.24-24.48-8.88-13.68-10.8-60.96-8.4-77.52,2.64-18.24,10.08-39.6,23.04-50.88,11.76-10.08,27.36-20.88,44.88-20.88s40.08,6.96,53.28,28.08c8.64,13.92,11.52,56.4,11.52,74.64s-11.28,39.6-25.2,50.64ZM346.44,665.91c-3.12-13.68-12.48-46.08-35.52-46.08-12,0-22.8,8.16-31.2,17.04-8.16,8.4-12.24,20.64-7.44,38.88,7.68,28.08,11.28,60.96,16.8,71.52,11.04,20.88,12.72,18.96,24.96,19.2,11.28.24,15.12-4.56,23.52-13.2,8.16-8.4,12.48-27.36,12.72-44.4.24-18.96-1.44-32.16-3.84-42.96Z"/>
      <path class="cls-1" d="M531.4,806.99l-24.24,7.92c-10.56-.96-13.44-.96-19.92-10.08-6.48-7.2-25.68-76.32-29.28-83.28-4.56-8.64-14.64-40.56-15.36-40.32-3.36.96-7.2,1.2-10.56,1.2-6.72,0-12.48-1.2-12.72-1.2l3.12,83.04c.24,5.76,2.16,9.36,4.08,11.04,1.92,1.44,17.52,7.92,23.52,7.92l.24,7.68-79.2-9.12-.24-7.44c5.52-.72,20.64-2.16,21.84-4.32,1.2-1.68,4.32-32.4,4.32-38.4l1.2-107.76c0-5.04-1.44-27.84-3.6-27.84-4.8-2.4-8.4-3.84-12-3.84-4.08,0-10.32,4.56-13.68,7.92l-2.64-14.4,60.48-10.56c8.88-1.44,23.28-4.56,33.36-4.56,3.84,0,7.2.48,9.36,1.68,20.4,12.48,35.04,21.12,35.04,52.56,0,15.36-5.76,39.12-22.56,47.52-1.92.72-20.88,6.48-20.88,6.48,0,2.64,13.44,23.76,15.84,27.6-.24.24,28.32,70.32,38.4,84,8.88-6,16.56-12.96,20.4-26.16.72-.24,1.44-.24,2.16-.24,3.12,0,5.76,1.92,5.76,1.92-4.08,10.08-1.44,28.08-12.24,41.04ZM450.52,591.95c-1.2-.24-3.36-.48-5.76-.48-7.2,0-17.76,1.2-22.56,1.44-6,.48-4.8,1.68-4.56,8.64l1.68,63.36c1.92,0,7.44.72,11.04.72,5.76,0,24.96-10.08,31.44-13.68,5.04-2.88,7.92-15.12,7.92-23.28,0-2.4-.24-4.32-.72-5.76-3.12-8.4-10.32-28.32-18.48-30.96Z"/>
      <path class="cls-1" d="M668.48,662.91c-10.56.48-19.44,7.2-19.44,7.2.96,3.12,3.6,6.24,5.04,11.76,0,11.52,6.72,34.56,9.36,46.56.48,2.4-7.2,30-14.88,32.64-9.84,3.6-31.92,18.96-41.04,18.96-16.8,0-40.32-14.64-54.48-19.68-17.52-6.24-16.56-45.36-16.56-63.36,0-16.08,13.44-95.76,25.92-106.08,0,0,35.28-19.92,54-19.92,6.48,0,18.72,12.72,24,16.56,6.24,4.56,8.88,12.24,9.84,12.24,2.4,0,4.32-.24,5.04-1.44.96-.96,2.88-16.32,3.6-18.24l11.52,1.2-6,24-6.24,33.6-13.92-2.16c8.64-14.4,4.8-17.28,3.12-23.52-2.64-9.36-21.36-23.76-31.2-25.92-10.56-2.4-22.56,5.76-30.72,14.16-8.16,8.64-17.04,68.64-17.28,87.6,0,16.08.96,40.8,9.84,49.68,11.28,10.8,11.52,21.12,24.24,21.12,1.68,0,4.08-.24,6.96-.72,2.64-.24,11.28-3.12,13.92-4.08,4.08-1.2,9.84-5.52,10.8-6.72,1.2-.96-1.92-15.36-2.16-17.28l-3.84-47.04c-1.2-6.48-7.2-7.68-9.36-7.68-2.4,0-13.92,6.72-20.16,7.44,0,0-17.28-4.08-12.24-22.8,11.28,9.6,18.96,9.84,18.96,9.84l22.08-9.6c6.24.48,4.8,2.64,10.8,1.44,7.44-1.68,12.72-1.92,19.2-6.24l21.6-5.04.96,13.44c-3.84-1.68-7.68-2.16-11.28-1.92Z"/>
      <path class="cls-1" d="M678.71,766.19c6-.48,12.96.96,14.64-.48,1.92-1.44,9.84,5.28,8.16-17.76l-11.04-145.68c-.48-5.76-3.84-15.36-5.52-17.28-1.92-1.92-10.08-5.28-16.08-5.76l1.68-8.64,125.28,15.84,4.32,38.16-12.96,1.92c5.28-4.8,2.4-8.88,2.64-12.48.48-7.68-2.4-12.72-4.08-14.16-2.88-2.4-37.2-4.8-47.04-3.6l-8.88,1.2c-2.4.24-3.84.24-4.56,1.2-.24.48-1.44,9.12-1.44,11.28l-1.44,36.96c13.04,4.45,19.81,5.29,23.6,5.09.68-.03,3.36-.21,7,0,3.42.2,6.19.65,8,1,.8-.26,1.82-.67,2.93-1.31,0,0,1.7-.81,2.86-2.14,1.68-1.92-1.68-14.4-.48-20.64l7.44-.48,9.6,61.68-8.64-.72c-1.2-6.48-5.52-20.4-7.68-22.32-1.68-2.16-6-2.16-13.2-3.12l-30.48-3.84s-1.44,28.08-.96,55.2c.24,15.6,2.64,45.12,2.88,45.12,0,3.12,21.36,6.72,23.52,7.44,1.92.48,19.92,1.68,29.52-2.16,11.04-4.32,11.76-1.2,14.88-12,1.44-5.28,8.4-28.08-3.36-40.56l12-6.48,9.36,72.96-134.4-6.24,1.92-7.2Z"/>
      <path class="cls-1" d="M969.84,590.27c-2.88-2.4-22.08-6.72-36.96-4.56-2.09-.6-5.46-1.25-9.48-.6-8.34,1.35-13.17,7.28-14.4,8.89-2.61,15.51-3.58,28.04-4,36-1.85,34.91,3.06,52.78,1.72,95.87-.26,8.45-.69,15.26-.96,19.2-.24,6.48.48,11.28,2.64,12.48,10.32,8.4,12.72,5.28,19.44,5.76l-.72,7.2-75.12,8.64-1.68-6.48c6.96-.48,10.8-1.44,17.04-11.76,1.44-2.16,5.52-13.68,6-20.88,8-23.7,8.6-42.33,7.64-55.03-.97-12.89-3.28-16.08-3-30,.31-15.49,3.4-22.61,5-42,.91-11.07.84-20.07.68-25.61-5.56.54-11.12,1.08-16.68,1.61-2.46-1.74-8.41-5.46-16.93-6.08-8.14-.59-14.33,1.95-17.04,3.27-3.6,2.16-19.2,30-17.04,46.8l-10.32.72c4.32-15.84,12.96-53.28,14.16-64.8,37.29-1.21,76.4-1.3,117.17.09,17.7.6,35.05,1.46,52.04,2.55l2.88,70.8-7.92.72c3.36-19.2-11.04-50.16-14.16-52.8Z"/>
      <path class="cls-1" d="M907,459"/>
      <path class="cls-1" d="M562.19,424.2"/>
      <path class="cls-1" d="M649.45,297.39c-2.16,2.16-5.28,17.28-5.04,25.92,8.31,62.14,8.45,92.03,6.59,107.69-.29,2.48-1.49,11.79-1.91,24.59-.52,15.98.44,29.01,1.32,37.41-.72.07-2.21.32-3.75,1.34-.85.57-1.59,1.39-2.49,2.74-8.4-12.96-25.92-35.28-33.12-49.68,0,0-47.76-74.16-47.76-74.16,3.15,54.58,1.71,64.77,1.71,64.77-1.23,8.69-3.46,19.09-3.34,33.18.07,7.9.85,15.99.85,15.99.47,5.18,2.22,10.77,2.22,15.91.48,2.16-2.88,8.16,21.36,11.52l-1.44,11.04c-18.96-4.56-48-8.88-73.92-10.32v-7.68c22.56,1.2,24-1.92,25.92-4.08,1.92-2.64,6.96-5.28,7.44-13.68,8.25-37.38,7.97-60.44,5.91-74.88-.62-4.36-2.81-17.83-2-36,.44-9.9,1.63-17.98,2.57-23.29-.56-1.68-1.12-3.36-1.68-5.04-1.2-3.6-4.56-2.64-6-3.36-1.68-.72-9.36-.48-14.88,4.08l-1.44-12.72c8.88.96,30.24-2.88,44.88-3.36,15.36,20.64,45.6,63.12,62.64,80.64l.48-47.52c0-8.64-4.32-65.04-6.96-67.68-1.68-1.92-21.12-.24-27.36-.96v-7.92c28.8-2.16,60.96-8.16,72.24-10.56v7.68c-6,.72-20.88,5.76-23.04,8.4ZM646,451"/>
      <path class="cls-1" d="M634.76,404.48c-.29,1.75-.82,3.47-1.57,5.08-.46.99-1.02,1.97-1.88,2.66-.37.3-.82.54-1.29.58-.82.07-1.56-.46-2.18-1.01-.6-.53-1.16-1.09-1.68-1.69"/>
      <polyline class="cls-1" points="561.51 457.06 561.49 460.62 554.93 457.06"/>
    </g>
  </g>
</svg>